<svg width="20" height="20" viewBox="0 0 20 20" fill="none" xmlns="http://www.w3.org/2000/svg">
<path d="M9.99999 13.3333C10.884 13.3333 11.7319 12.9821 12.357 12.357C12.9821 11.7319 13.3333 10.884 13.3333 9.99996C13.3333 9.1159 12.9821 8.26806 12.357 7.64294C11.7319 7.01782 10.884 6.66663 9.99999 6.66663C9.11593 6.66663 8.26809 7.01782 7.64297 7.64294C7.01785 8.26806 6.66666 9.1159 6.66666 9.99996C6.66666 10.884 7.01785 11.7319 7.64297 12.357C8.26809 12.9821 9.11593 13.3333 9.99999 13.3333Z" stroke="black" stroke-width="1.5" stroke-linecap="round" stroke-linejoin="round"/>
<path d="M2.5 13.3333V6.66667C2.5 5.5616 2.93899 4.50179 3.72039 3.72039C4.50179 2.93899 5.5616 2.5 6.66667 2.5H13.3333C14.4384 2.5 15.4982 2.93899 16.2796 3.72039C17.061 4.50179 17.5 5.5616 17.5 6.66667V13.3333C17.5 14.4384 17.061 15.4982 16.2796 16.2796C15.4982 17.061 14.4384 17.5 13.3333 17.5H6.66667C5.5616 17.5 4.50179 17.061 3.72039 16.2796C2.93899 15.4982 2.5 14.4384 2.5 13.3333Z" stroke="black" stroke-width="1.5"/>
<path d="M14.5833 5.42506L14.5917 5.41589" stroke="black" stroke-width="1.5" stroke-linecap="round" stroke-linejoin="round"/>
</svg>
