<svg width="20" height="20" viewBox="0 0 20 20" fill="none" xmlns="http://www.w3.org/2000/svg">
<path d="M9.99999 18.3333C14.6024 18.3333 18.3333 14.6023 18.3333 9.99996C18.3333 5.39759 14.6024 1.66663 9.99999 1.66663C5.39762 1.66663 1.66666 5.39759 1.66666 9.99996C1.66666 14.6023 5.39762 18.3333 9.99999 18.3333Z" stroke="black" stroke-width="1.5" stroke-linecap="round" stroke-linejoin="round"/>
<path d="M18.3333 11.0533C17.5493 10.9067 16.7534 10.8331 15.9558 10.8333C11.4958 10.8333 7.52832 13.1183 4.99999 16.6666M15.8333 4.16663C13.225 7.22246 9.30666 9.16663 4.92499 9.16663C3.80332 9.16663 2.71249 9.03913 1.66666 8.79913" stroke="black" stroke-width="1.5" stroke-linecap="round" stroke-linejoin="round"/>
<path d="M12.1816 18.3333C12.3939 17.3024 12.5005 16.2525 12.5 15.2C12.5 9.93833 9.86165 5.28917 5.83331 2.5" stroke="black" stroke-width="1.5" stroke-linecap="round" stroke-linejoin="round"/>
</svg>
